<svg xmlns="http://www.w3.org/2000/svg" width="115" height="115" fill="none" viewBox="0 0 115 115"><g filter="url(#filter0_i_323_44)"><path fill="url(#paint0_linear_323_44)" fill-rule="evenodd" d="M73.3777 36.5078C85.0477 42.9859 89.2073 52.4804 85.8559 64.9882C80.8285 83.7507 66.1282 82.3255 61.2692 91.0783C58.0293 96.9138 58.9084 103.014 63.9062 109.381C52.2362 102.903 48.0765 93.408 51.428 80.9002C56.4554 62.1378 71.1556 63.563 76.0146 54.8102C79.2546 48.9747 78.3754 42.8744 73.3777 36.5078ZM51.5182 5.51371C63.1883 11.9917 67.3479 21.4863 63.9964 33.9941C58.9691 52.7566 44.2688 51.3313 39.4098 60.0841C36.1699 65.9197 37.049 72.02 42.0468 78.3865C30.3767 71.9085 26.2171 62.4139 29.5686 49.9061C34.5959 31.1437 49.2962 32.5689 54.1552 23.8161C57.3951 17.9805 56.516 11.8802 51.5182 5.51371Z" clip-rule="evenodd"/></g><defs><filter id="filter0_i_323_44" width="58.531" height="104.736" x="28.447" y="5.514" color-interpolation-filters="sRGB" filterUnits="userSpaceOnUse"><feFlood flood-opacity="0" result="BackgroundImageFix"/><feBlend in="SourceGraphic" in2="BackgroundImageFix" mode="normal" result="shape"/><feColorMatrix in="SourceAlpha" result="hardAlpha" type="matrix" values="0 0 0 0 0 0 0 0 0 0 0 0 0 0 0 0 0 0 127 0"/><feOffset dy=".869"/><feGaussianBlur stdDeviation="3.083"/><feComposite in2="hardAlpha" k2="-1" k3="1" operator="arithmetic"/><feColorMatrix type="matrix" values="0 0 0 0 0 0 0 0 0 0 0 0 0 0 0 0 0 0 0.1 0"/><feBlend in2="shape" mode="normal" result="effect1_innerShadow_323_44"/></filter><linearGradient id="paint0_linear_323_44" x1="57.349" x2="57.349" y1="125.352" y2="-9.811" gradientUnits="userSpaceOnUse"><stop stop-color="red"/><stop offset="1" stop-color="#FFED4D"/></linearGradient></defs></svg>